# xmcd CD database file
#
# Track frame offsets:
#	151
#	18203
#	48602
#	66326
#	91753
#	115422
#	135025
#	163051
#	188624
#	202684
#	225525
#	250852
#	267022
#	288115
#	313533
#
# Disc length: 4629 seconds
#
# Revision: 2
# Processed by: cddbd v1.5.2PL0 Copyright (c) Steve Scherf et al.
# Submitted via: CDex 1.51
#
DISCID=ba12130f
DTITLE=Munly and The Lee Lewis Harlots - Munly and The Lee Lewis Harlots
DYEAR=2004
DGENRE=Alt. Country
TTITLE0=Amen Corner
TTITLE1=Big Black Bull Comes Like A Caesar
TTITLE2=Old Service Road
TTITLE3=Another Song About Jesus, A Wedding Sheet, And A Bowie Knife
TTITLE4=Cassius Castrato the She-Male of the Mens Prison
TTITLE5='Ragin' Cajun'
TTITLE6=Song Rebecca Calls, 'that birdcage song', Which Never Was Though Now Kind of Is Because of Her Influence...
TTITLE7=Goose Walking Over My Grave
TTITLE8=The Leavening of the Spit-Bread Girls
TTITLE9=A Gentle Man's Jihad
TTITLE10=The Denver Boot Redux
TTITLE11=Of Silas Fauntleroys Willingness to Influence the Panel
TTITLE12=Jacob Dumb
TTITLE13=My Second Salvation Army Choir
TTITLE14=River Forktine Tppecanoe
EXTD=YEAR: 2004
EXTT0=
EXTT1=
EXTT2=
EXTT3=
EXTT4=
EXTT5=
EXTT6=
EXTT7=
EXTT8=
EXTT9=
EXTT10=
EXTT11=
EXTT12=
EXTT13=
EXTT14=
PLAYORDER=
